<mxfile host="app.diagrams.net" modified="2023-12-20T08:47:11.612Z" agent="Mozilla/5.0 (Windows NT 10.0; Win64; x64) AppleWebKit/537.36 (KHTML, like Gecko) Chrome/120.0.0.0 Safari/537.36" version="22.1.11" etag="KsUdF3Ue5Fq5HRtT9tYf" type="github">
  <diagram name="Страница — 1" id="Rqlc3qOJufCQ3UV8yMl9">
    <mxGraphModel>
      <root>
        <mxCell id="0" />
        <mxCell id="1" parent="0" />
      </root>
    </mxGraphModel>
  </diagram>
</mxfile>
